Ostrich_Walking_Kinematics																														
version=1																														
nRows=52																														
nColumns=31																														
inDegrees=yes																														
endheader																														
time	pelvis_tilt	pelvis_list	pelvis_rotation	pelvis_tx	pelvis_ty	pelvis_tz	R_hip_extension	R_hip_abduction	R_hip_rotation	R_knee_angle	R_knee_varus	R_knee_rotation	R_ankle_angle	R_ankle_abduction	R_ankle_rotation	R_mtp_angle	R_mtp_abduction	R_mtp_rotation	L_hip_extension	L_hip_abduction	L_hip_rotation	L_knee_angle	L_knee_varus	L_knee_rotation	L_ankle_angle	L_ankle_abduction	L_ankle_rotation	L_mtp_angle	L_mtp_abduction	L_mtp_rotation
0.98	11.59	-1.301	-2.8589	1.9121	1.2206	-0.87699	36.939	-15.289	-34.977	-73.645	-16.485	-6.9891	15.933	8.9027	6.1009	-32.593	28.187	7.814	41.992	-16.393	-30.422	-74.474	-17.282	-11.4	69.898	21.908	-15.768	-108.5	-3.0242	-1.7046
0.985	11.823	0.426	-2.9396	1.9171	1.2196	-0.87599	37.347	-17.064	-33.905	-74.517	-16.656	-6.9683	16.156	8.8729	5.5418	-32.616	28.911	7.7666	41.29	-15.837	-30.816	-73.096	-16.241	-11.148	68.939	21.872	-15.125	-107.76	-2.9266	-1.6687
0.99	11.64	1.32	-3.3497	1.9233	1.2196	-0.87445	38.388	-17.422	-33.051	-75.538	-17.032	-7.122	16.451	8.6136	5.1463	-32.106	28.935	7.8822	40.678	-14.698	-32.445	-71.885	-16.11	-11.446	67.707	22.458	-14.589	-106.91	-2.8293	-0.9968
0.995	11.622	-1.122	-2.6245	1.928	1.2183	-0.87592	37.389	-15.731	-35.147	-75.129	-16.939	-7.3875	15.799	8.3479	5.5851	-30.905	28.605	8.1004	41.819	-16.818	-30.265	-71.318	-15.846	-11.624	66.26	23.25	-13.731	-105.09	-2.4974	-1.0686
1	11.6	2.49	-3.338	1.933	1.2173	-0.87492	38.573	-18.78	-32.314	-75.953	-16.986	-6.9138	15.559	8.5836	5.198	-30.292	28.199	8.1079	41.01	-15.622	-31.475	-69.999	-15.021	-11.185	65.038	22.832	-13.6	-103.51	-2.1913	0.021891
1.005	11.413	1.902	-3.0974	1.9372	1.2171	-0.87417	38.456	-18.198	-32.964	-75.706	-17.174	-7.2396	15.357	8.5676	4.8495	-30.672	28.687	8.1937	40.474	-14.866	-32.084	-68.486	-14.438	-11.876	63.338	23.575	-12.071	-102.34	-2.0798	0.25821
1.01	11.379	-0.133	-3.0606	1.9429	1.2153	-0.87343	37.755	-16.62	-34.153	-75.994	-16.8	-7.2565	15.793	8.2617	4.7164	-30.394	28.948	8.2457	41.431	-16.581	-30.066	-67.677	-14.376	-11.732	61.817	23.492	-11.509	-100.82	-1.7672	1.4961
1.015	11.393	-0.972	-2.8112	1.9479	1.2143	-0.87243	37.466	-15.917	-35.216	-76.148	-17.416	-7.3106	15.962	8.3473	4.463	-30.114	29.19	8.1961	40.479	-15.201	-31.401	-66.14	-13.234	-11.745	60.405	22.989	-10.889	-99.81	-1.6492	2.4332
1.02	11.236	1.409	-3.1158	1.9529	1.2133	-0.87143	38.515	-17.78	-33.278	-76.628	-17.15	-7.9033	15.357	7.9354	4.7716	-29.647	29.294	8.6421	40.502	-14.938	-31.248	-65.377	-13.017	-12.422	58.788	23.939	-10.075	-97.48	-1.2515	2.2928
1.025	11.194	4.033	-3.2606	1.9568	1.2128	-0.87312	39.909	-20.247	-31.251	-77.865	-17.319	-7.8344	15.381	7.869	4.671	-29.124	29.381	8.6363	41.341	-17.292	-28.653	-64.703	-12.49	-12.325	56.99	23.776	-8.912	-96.085	-1.0229	3.536
1.03	11.191	-0.948	-2.8173	1.9639	1.2113	-0.87043	37.683	-16.004	-35.184	-76.785	-17.417	-7.5356	15.036	7.6097	4.2197	-28.404	29.614	8.4893	39.728	-15.021	-31.339	-62.924	-11.69	-11.926	55.876	23.65	-8.6286	-94.66	-0.78124	3.5601
1.035	11.227	2.682	-3.5599	1.9682	1.2121	-0.86917	39.226	-18.515	-31.865	-77.841	-17.373	-7.7904	15.164	7.714	4.0922	-28.596	29.879	8.505	40.108	-15.283	-31.508	-62.389	-11.303	-12.546	53.875	23.976	-6.7558	-93.154	-0.54363	4.3223
1.04	11.004	1.816	-3.283	1.9723	1.2118	-0.86842	38.95	-17.777	-33.031	-77.675	-17.7	-7.6684	14.882	7.3861	4.1369	-27.956	29.407	8.8918	41.192	-17.275	-28.817	-61.847	-11.074	-12.317	52.281	24.05	-5.8434	-91.324	-0.22427	4.8068
1.045	10.987	-0.648	-3.2438	1.9773	1.2108	-0.86742	38.156	-15.616	-34.658	-77.668	-18.014	-7.6425	15.232	7.6968	3.4749	-28.162	30.408	8.4113	39.67	-15.135	-31.417	-60.123	-10.068	-12.641	50.331	23.822	-4.6936	-89.521	0.081838	5.3024
1.05	10.836	0.815	-3.3007	1.9842	1.2091	-0.86617	38.481	-17.156	-33.387	-77.85	-17.268	-7.7049	15.057	7.1321	3.9693	-28.075	30.521	8.7093	40.96	-17.675	-28.579	-59.878	-9.7395	-12.228	49.101	23.386	-4.8464	-88.59	0.235	6.0816
1.055	10.811	1.005	-3.3128	1.9883	1.2088	-0.86542	39.059	-17.224	-33.51	-78.415	-18.16	-7.6736	14.355	7.4631	3.7852	-26.945	29.957	8.6597	40.454	-16.415	-29.339	-58.809	-9.2077	-12.661	47.336	23.306	-3.2145	-86.655	0.5604	6.8413
1.06	10.606	0.342	-3.2521	1.9942	1.2086	-0.8664	38.915	-16.441	-33.777	-78.411	-17.928	-7.807	14.715	7.3132	3.6509	-27.185	30.007	8.7798	40.326	-16.564	-29.789	-57.67	-8.8471	-12.528	45.401	22.889	-2.9195	-85.543	0.72029	7.7765
1.065	10.594	-0.708	-3.0068	1.9976	1.2092	-0.8654	38.301	-15.782	-34.689	-78.339	-18.087	-7.4846	14.653	7.2702	3.6018	-26.573	30.538	8.4902	41.024	-17.661	-28.709	-57.251	-7.9126	-13.064	43.557	22.735	-1.4692	-84.264	0.95425	8.148
1.07	10.436	1.739	-3.2852	2.0026	1.2082	-0.8644	39.333	-17.883	-33.054	-78.911	-18.503	-6.7608	14.336	7.3837	3.2544	-26.054	29.869	8.5677	40.518	-16.264	-29.562	-55.769	-7.6917	-12.88	41.7	22.545	-0.58998	-82.514	1.2196	8.4467
1.075	10.405	2.553	-3.5001	2.0086	1.2072	-0.8634	39.74	-18.048	-32.095	-79.182	-18.426	-7.2368	14.271	7.3373	3.2697	-26.04	29.899	8.6844	40.354	-16.539	-30.062	-55.127	-7.1099	-12.817	39.935	22.496	0.15495	-81.29	1.4058	8.3397
1.08	10.18	-2.67	-2.9609	2.0147	1.2073	-0.86189	37.653	-13.951	-36.43	-78.057	-18.76	-6.4134	14.231	7.2322	3.2453	-25.611	29.689	8.6502	40.68	-16.981	-28.855	-54.292	-6.6255	-12.873	38.338	21.44	0.51614	-79.474	1.7102	9.3994
1.085	10.211	-0.503	-3.4358	2.0189	1.207	-0.86115	38.774	-15.779	-34.537	-79.016	-19	-6.1554	13.929	7.4231	2.3378	-25.48	30.262	8.4303	40.318	-16.346	-29.9	-53.655	-6.4223	-12.187	36.992	21.236	0.63781	-78.815	1.7588	9.7869
1.09	10.232	2.505	-3.5166	2.0249	1.206	-0.86115	39.262	-18.064	-32.506	-78.995	-19.171	-5.6896	13.65	7.7023	2.1067	-25.311	29.429	8.581	39.836	-15.384	-31.207	-52.509	-5.7136	-12.342	34.865	20.117	2.0695	-76.459	2.1447	10.891
1.095	10.206	2.102	-3.5065	2.0317	1.2043	-0.85989	38.972	-17.554	-32.861	-78.744	-19.421	-5.5455	13.222	7.5352	2.1711	-24.801	29.93	8.3662	40.911	-17.6	-29.513	-52.747	-5.4809	-12.039	33.486	20.111	2.4405	-75.726	2.2206	10.916
1.1	9.9767	-1.562	-3.1862	2.0359	1.204	-0.85915	37.582	-14.439	-35.367	-78.052	-19.206	-5.0781	13.19	7.4675	1.5734	-24.33	29.987	8.2505	40.383	-16.165	-31.015	-51.768	-5.0952	-11.914	31.716	19.23	3.5619	-73.686	2.5792	11.658
1.105	10.007	1.176	-3.4813	2.0419	1.203	-0.85815	38.952	-16.827	-33.493	-79.106	-19.917	-5.4152	12.971	7.9525	2.3421	-24.299	29.569	8.1813	40.914	-16.416	-30.14	-51.314	-4.5149	-12.257	29.595	18.033	4.88	-71.605	2.9703	12.695
1.11	9.8024	1.222	-3.4887	2.0479	1.202	-0.85715	38.651	-16.337	-33.134	-78.719	-19.648	-5.1766	12.974	7.9459	1.6654	-24.083	29.648	8.0302	41.116	-17.605	-29.85	-51.032	-4.2346	-11.68	27.989	17.764	4.4067	-70.322	3.0434	12.977
1.115	9.5982	-2.682	-3.1837	2.0539	1.201	-0.85615	37.18	-13.115	-36.016	-77.723	-19.679	-4.5196	12.265	7.8436	0.95725	-23.356	29.606	8.132	40.716	-16.375	-31.598	-50.615	-3.748	-11.021	26.733	16.667	5.1888	-69.001	3.3642	13.559
1.12	9.8055	-2.458	-3.1948	2.0599	1.2	-0.85515	37.105	-13.346	-35.835	-78.106	-19.961	-4.2775	12.423	7.981	0.75706	-23.43	29.987	7.8455	41.081	-16.944	-31.475	-50.475	-3.5764	-10.905	24.699	16.13	6.1046	-66.383	3.7977	13.92
1.125	9.5758	-0.159	-3.1934	2.0674	1.198	-0.85642	37.722	-15.253	-34.372	-78.398	-20.199	-4.3546	12.266	8.3733	0.99531	-23.3	29.251	7.8941	41.49	-17.15	-31.994	-50.777	-3.238	-10.658	23.522	15.094	6.7591	-64.812	4.1207	14.728
1.13	9.6194	3.766	-3.7068	2.0726	1.1978	-0.85567	39.403	-18.653	-31.164	-79.577	-20.359	-3.9279	12.106	8.3059	0.30826	-23.261	30.335	7.5626	41.572	-17.12	-32.032	-50.58	-2.9023	-10.479	22.09	14.362	7.3507	-63.061	4.3786	14.899
1.135	9.3818	-1.308	-3.1703	2.0804	1.196	-0.85442	37.205	-13.855	-34.862	-78.204	-20.101	-4.8083	12.094	8.3667	0.95691	-23.381	29.551	7.9435	42.116	-17.661	-31.564	-50.834	-2.5619	-10.54	20.547	13.608	8.0724	-61.036	4.8424	14.992
1.14	9.4146	-0.908	-3.1948	2.0856	1.1958	-0.85367	37.285	-14.79	-34.672	-78.851	-20.181	-3.8939	12.355	8.0427	0.66167	-23.251	30.055	7.7004	42.984	-18.814	-30.973	-51.661	-2.6275	-10.314	19.607	12.882	8.4735	-59.548	4.9377	16.47
1.145	9.4017	-1.758	-3.378	2.0929	1.195	-0.85115	36.712	-13.336	-35.242	-78.537	-20.577	-4.3302	12.562	8.5007	0.36196	-23.797	29.707	7.8765	42.264	-18.218	-32.59	-51.439	-2.0771	-9.7605	18.277	11.924	8.6481	-57.529	5.4208	16.606
1.15	9.4011	0.824	-3.6861	2.1007	1.1933	-0.84989	37.216	-15.491	-33.147	-79.076	-20.093	-4.7147	12.654	8.008	1.2521	-23.887	29.567	8.0574	43.051	-18.104	-32.917	-52.202	-2.5712	-9.628	18.015	11.5	8.5899	-56.72	5.5279	17.4
1.155	9.2107	-0.886	-3.1968	2.1056	1.1928	-0.85167	37.029	-14.401	-34.579	-79.353	-20.195	-4.716	12.628	7.7029	0.48341	-24.019	30.192	8.1745	43.642	-19.087	-31.535	-52.767	-2.3324	-9.6204	17.438	11.317	9.0525	-55.573	5.6407	17.692
1.16	9.2163	-0.204	-3.3667	2.1126	1.1918	-0.85067	37.415	-14.986	-33.968	-80.254	-20.598	-5.1429	13.506	8.5507	1.1002	-25.045	29.64	7.9941	43.043	-18.841	-32.84	-53.12	-2.09	-8.5793	17.115	10.709	8.6846	-53.762	5.8561	17.818
1.165	9.0103	-0.14	-3.3559	2.1188	1.1916	-0.84991	37.323	-15.13	-33.952	-80.615	-20.465	-5.0183	13.993	8.1429	1.467	-25.224	29.408	8.1361	42.492	-16.895	-34.515	-53.113	-2.3492	-8.7915	16.304	10.446	9.0473	-52.038	6.0715	18.148
1.17	9.2632	2.717	-3.6518	2.1258	1.1906	-0.84891	37.697	-17.511	-31.86	-81.239	-20.402	-4.8087	14.348	7.8981	0.65195	-25.654	30.028	8.1491	43.999	-19.718	-31.926	-54.538	-2.0424	-8.5567	16.16	9.8537	8.7165	-51.219	6.1336	19.569
1.175	9.0353	2.445	-3.6176	2.1328	1.1896	-0.84791	37.534	-17.039	-31.966	-81.189	-20.115	-5.4474	14.511	7.5621	1.1207	-26.472	30.219	8.4146	43.81	-18.714	-33.395	-54.874	-2.4289	-8.6924	15.789	9.9799	9.004	-50.019	6.2694	19.158
1.18	9.0226	1.325	-3.3178	2.1406	1.1883	-0.84942	36.777	-16.213	-32.693	-81.175	-19.987	-5.0455	15.001	7.7347	1.0736	-27.016	29.65	8.3166	45.184	-20.652	-30.816	-56.305	-2.6283	-8.132	16.429	9.8743	8.7726	-49.225	6.2664	19.547
1.185	9.0256	-0.001	-3.3624	2.1478	1.1876	-0.84691	36.236	-14.714	-33.198	-81.284	-19.7	-6.1134	15.058	7.9579	1.3277	-27.73	29.624	8.4434	44.81	-19.386	-32.691	-56.35	-3.1133	-8.3938	15.825	9.6471	9.0314	-47.954	6.3157	20.557
1.19	9.0337	-0.56	-3.2877	2.1548	1.1866	-0.84591	35.774	-14.241	-33.947	-81.373	-20.241	-6.1677	15.647	8.1647	1.6051	-28.817	29.824	8.1734	44.371	-18.168	-33.56	-56.78	-3.2238	-8.3698	16.247	9.5744	8.8703	-47.484	6.3638	20.902
1.195	8.8539	2.783	-3.7763	2.1621	1.1864	-0.84468	37.774	-17.367	-31.589	-83.308	-20.681	-6.1606	16.414	8.0965	1.442	-30.35	29.794	8.3574	45.965	-20.949	-30.847	-58.347	-3.2042	-7.9121	16.864	9.4418	8.9003	-46.613	6.3831	20.941
1.2	9.0597	-1.541	-3.2887	2.1683	1.1862	-0.84393	35.197	-13.421	-34.492	-82.006	-20.26	-6.3033	16.924	8.3049	1.4177	-31.605	29.839	8.2544	44.739	-18.827	-32.758	-58.322	-3.8314	-7.9093	16.972	9.8054	8.8138	-45.311	6.51	20.765
1.205	8.8648	-1.454	-3.2715	2.1761	1.1833	-0.84314	35.209	-13.663	-34.442	-82.321	-20.327	-5.7254	17.252	8.3304	1.4517	-32.159	29.174	8.1928	45.372	-18.953	-33.494	-59.553	-4.3967	-7.9933	17.285	9.7107	8.8035	-45.008	6.5909	21.436
1.21	9.0245	2.717	-3.6882	2.1838	1.1821	-0.84464	37.064	-17.052	-31.051	-84.241	-20.159	-6.8174	17.772	8.2213	1.8587	-33.415	29.221	8.3234	47.825	-21.942	-29.209	-61.368	-4.0886	-8.0193	17.963	9.4347	9.0829	-44.921	6.6732	21.781
1.215	9.0702	4.011	-3.7161	2.1901	1.182	-0.84344	36.988	-18.174	-30.235	-84.852	-20.373	-6.3359	18.952	8.5968	1.1114	-34.923	29.041	8.0387	46.028	-19.219	-32.464	-60.514	-4.9375	-7.9552	17.912	10.003	8.5701	-44.226	6.4898	22.317
1.22	9.0406	-0.147	-3.2263	2.1988	1.1791	-0.84264	35.627	-14.398	-33.002	-84.535	-20.313	-6.9884	19.246	8.8638	1.1316	-36.459	29.12	7.9008	45.255	-19.058	-33.78	-61.274	-4.8935	-7.2893	18.222	10.259	9.1103	-43.203	6.6954	21.365
1.225	9.0608	-1.156	-3.2498	2.2053	1.179	-0.84038	35.117	-13.655	-33.717	-84.837	-20.595	-6.7616	19.879	9.3303	1.4129	-37.495	28.258	7.6222	47.05	-20.49	-31.185	-62.601	-5.3555	-7.2089	18.322	9.9023	8.7727	-42.244	6.8331	21.956
1.23	9.0622	1.922	-3.4417	2.2146	1.1752	-0.84184	36.709	-16.619	-31.513	-86.52	-20.895	-7.067	20.565	9.4722	1.6556	-39.545	28.516	7.386	47.489	-20.807	-31.699	-63.346	-6.3776	-6.9267	18.62	10.356	8.4399	-41.916	6.5379	22.556
1.235	9.0699	2.229	-3.4613	2.2208	1.175	-0.84106	36.647	-16.669	-31.063	-86.989	-20.492	-7.2759	21.371	9.1318	1.0599	-42.064	28.588	7.3182	45.537	-17.864	-35.35	-63.09	-6.4851	-6.5128	19.024	10.399	8.5948	-41.584	6.6585	22.413
